<svg xmlns="http://www.w3.org/2000/svg" viewBox="0 0 187.09 19.95"><defs><style>.cls-1{fill:#005983;fill-rule:evenodd;}</style></defs><title>Asset 1</title><g id="Layer_2" data-name="Layer 2"><g id="Logo"><polygon class="cls-1" points="93.11 17.48 91.52 10.81 87.73 17.48 83.21 17.48 79.38 10.81 77.78 17.48 73.02 17.48 76.14 7.14 81.41 7.14 85.47 14.22 89.54 7.14 94.75 7.14 97.89 17.48 93.11 17.48 93.11 17.48"/><path class="cls-1" d="M57.49,7.14l-7,10.34h4.74l1.06-1.79h7.34l1.07,1.79H69.9l-7-10.34Zm0,6.55,2.47-4.15,2.47,4.15Z"/><path class="cls-1" d="M149,7.14l-7,10.34h4.74l1.06-1.79h7.35l1.06,1.79h5.23l-7-10.34Zm0,6.55,2.47-4.15L154,13.69Z"/><polygon class="cls-1" points="175.97 17.48 170.31 12.59 170.31 17.48 165.47 17.48 165.47 7.14 170.31 7.14 170.31 11.67 175.96 7.14 181.84 7.14 175.31 12.08 182.28 17.48 175.97 17.48 175.97 17.48"/><path class="cls-1" d="M133.23,17.48h5.47l-3.62-4c2-.49,2.84-1.68,2.84-3,0-1.58-1.12-2.44-2.72-2.87a24.73,24.73,0,0,0-6-.47h-7.4V17.48h4.78V14.37h4.15l2.46,3.11Zm-6.61-8.29h3c2.47,0,3.48.47,3.48,1.52a1.67,1.67,0,0,1-1.5,1.55,9.18,9.18,0,0,1-2.15.17h-2.86V9.19Z"/><polygon class="cls-1" points="111.19 9.51 111.19 17.48 106.33 17.48 106.33 9.51 100.08 9.51 100.61 7.14 117.53 7.14 117.01 9.51 111.19 9.51 111.19 9.51"/><path class="cls-1" d="M24.24,16.07A107,107,0,0,0,35,20c3.93-7.82,11-14,24.14-19.69V0C42.35,4.6,31.82,7.9,24.24,16.07Z"/><path class="cls-1" d="M31.73.85C28,.68,8.63.19,0,3.92,2.33,5.3,4.84,6.73,7.77,8.28c8.56-4,19.65-5.45,29.85-6V2A39.36,39.36,0,0,1,31.73.85Z"/><path class="cls-1" d="M40.45,2.42c-7.65.77-21.21,3-28.93,7.79,2.81,1.41,5.75,2.81,8.68,4.12C28.33,7.4,39.08,4.33,50,2.17V1.92a87.84,87.84,0,0,1-9.59.5Z"/><path class="cls-1" d="M183.49,8.91a1.6,1.6,0,1,1,3.2,0,1.6,1.6,0,1,1-3.2,0Zm1.61,2a2,2,0,1,0-2-2,2,2,0,0,0,2,2Zm-.42-1.81h.4l.59,1h.39l-.65-1a.59.59,0,0,0,.59-.62c0-.45-.27-.65-.8-.65h-.86v2.27h.34v-2h.47c.24,0,.49,0,.49.33s-.26.37-.55.37h-.41v.3Z"/></g></g></svg>