<?xml version="1.0" encoding="utf-8"?>
<!-- Generator: Adobe Illustrator 19.1.0, SVG Export Plug-In . SVG Version: 6.00 Build 0)  -->
<!DOCTYPE svg PUBLIC "-//W3C//DTD SVG 1.1//EN" "http://www.w3.org/Graphics/SVG/1.1/DTD/svg11.dtd">
<svg version="1.1" id="Layer_1" xmlns="http://www.w3.org/2000/svg" xmlns:xlink="http://www.w3.org/1999/xlink" x="0px" y="0px"
	 viewBox="0 0 100 55.7" style="enable-background:new 0 0 100 55.7;" xml:space="preserve">
<style type="text/css">
	.st0{fill:#44C8F5;}
	.st1{fill:#636567;}
</style>
<g>
	<g>
		<g>
			<path class="st0" d="M16,8c0,4.4-3.6,8-8,8c-4.4,0-8-3.6-8-8c0-4.4,3.6-8,8-8C12.4,0,16,3.6,16,8"/>
			<path class="st0" d="M33.6,8c0,4.4-3.6,8-8,8c-4.4,0-8-3.6-8-8c0-4.4,3.6-8,8-8C30,0,33.6,3.6,33.6,8"/>
			<path class="st0" d="M16,25.5c0,4.4-3.6,8-8,8c-4.4,0-8-3.6-8-8c0-4.4,3.6-8,8-8C12.4,17.5,16,21.1,16,25.5"/>
			<path class="st0" d="M33.6,25.5c0,4.4-3.6,8-8,8c-4.4,0-8-3.6-8-8c0-4.4,3.6-8,8-8C30,17.5,33.6,21.1,33.6,25.5"/>
			<path class="st0" d="M8,35.1c-4.4,0-8,3.4-8,8c0,4.7,3.6,8,8,8c4.4,0,8-3.4,8-8C16,38.4,12.4,35.1,8,35.1"/>
			<path class="st0" d="M55.3,32.6c1.2,0,2.2-1,2.2-2.2c0-1.2-1-2.2-2.2-2.2s-2.2,1-2.2,2.2C53.2,31.6,54.2,32.6,55.3,32.6"/>
		</g>
		<g>
			<path class="st1" d="M43.2,35.1c-4.4,0-8,3.4-8,8c0,4.7,3.6,8,8,8c4.4,0,8-3.4,8-8C51.2,38.4,47.6,35.1,43.2,35.1z M43.2,48.1
				c-2.8,0-5-2.1-5-5.1c0-2.9,2.2-5,5-5c2.8,0,5,2.1,5,5C48.2,46,46,48.1,43.2,48.1z"/>
			<path class="st1" d="M25.5,35.1c-4.4,0-8,3.3-8,8h0v12.7h2.9v-6.4c1.4,1.1,3.2,1.8,5.1,1.8c4.4,0,8-3.4,8-8
				C33.6,38.4,30,35.1,25.5,35.1z M25.5,48.1c-2.8,0-5-2.1-5-5.1c0-2.9,2.2-5,5-5c2.8,0,5,2.1,5,5C30.6,46,28.3,48.1,25.5,48.1z"/>
			<path class="st1" d="M75.6,47.6v-6.6c0-3.9-1.6-5.9-5.3-5.9c-3.3,0-5.1,2.2-5.7,3.5h-0.1c0,0,0.1-0.4,0.1-0.9v-0.6
				c0-1.1-0.6-1.7-1.9-1.7h-2.8v2.5h1.2c0.4,0,0.7,0.2,0.7,0.7v12.1h2.9v-7.2c0-0.8,0.1-1.5,0.3-2.1c0.6-2.2,2.5-3.8,4.8-3.8
				c2.4,0,2.9,1.7,2.9,3.8v7.2c0,1.4,0.6,1.9,1.9,1.9h2.3v-2.5h-0.6C75.9,48.2,75.6,48,75.6,47.6z M55.3,35.4h-2.9v2.5h1.2
				c0.4,0,0.7,0.2,0.7,0.7v10.2c0,1.4,0.6,1.9,1.9,1.9h0.8h0.2V37.4C57.2,36,56.7,35.4,55.3,35.4z M82.9,44.8v-7h3.7v-2.4h-3.7v-4.2
				H80v4.2H78v2.4h2v7.4c0,5.1,3.9,5.7,5.8,5.7c0.6,0,1-0.1,1-0.1v-2.6c0,0-0.3,0.1-0.7,0.1C85,48.2,82.9,47.9,82.9,44.8z
				 M91.6,39.2c0-1.2,1.1-1.8,2.8-1.8c0.4,0,0.8,0.1,1.2,0.2c0,0.1,0,0.3,0,0.4c0,1,0.8,1.9,1.9,1.9c1.1,0,1.9-0.8,1.9-1.9
				c0-0.4-0.1-0.8-0.3-1.1c-0.8-1.4-3.2-1.9-4.7-1.9c-3.1,0-5.7,1.4-5.7,4.3c0,4.9,8.4,4.6,8.4,7.4c0,1.3-1.2,2-2.7,2
				c-2.8,0-4.6-2.3-4.6-2.3l-1.5,2c0,0,2,2.7,6.1,2.7c3.2,0,5.6-1.8,5.6-4.5C100,41.5,91.6,42.1,91.6,39.2z"/>
		</g>
	</g>
</g>
</svg>
